<svg width="32" height="32" viewBox="0 0 32 32" fill="none" xmlns="http://www.w3.org/2000/svg">
<g clip-path="url(#clip0_1_454)">
<path d="M31.6846 24.8097C31.647 24.7235 31.5997 24.6418 31.5437 24.5662L28.7783 20.8329C28.5903 20.3802 28.1444 20.0617 27.6238 20.0617H5.62584V6.93798C5.62584 5.5596 6.74721 4.43823 8.12559 4.43823H23.8741C25.2525 4.43823 26.3738 5.5596 26.3738 6.93798V15.0622C26.3738 15.7525 26.9334 16.3121 27.6237 16.3121C28.314 16.3121 28.8736 15.7525 28.8736 15.0622V6.93792C28.8736 4.18117 26.6308 1.93835 23.8741 1.93835H8.12565C5.3689 1.93835 3.12615 4.18117 3.12615 6.93792V20.9616L0.456025 24.5662C0.400025 24.6418 0.352712 24.7235 0.315087 24.8097C-0.193225 25.973 -0.0817254 27.3017 0.6134 28.3641C1.30852 29.4265 2.48146 30.0607 3.75102 30.0607H28.2487C29.5183 30.0607 30.6912 29.4265 31.3863 28.3641C32.0815 27.3017 32.193 25.973 31.6846 24.8097ZM29.2946 26.9954C29.0595 27.3548 28.6783 27.5609 28.2488 27.5609H20.3745C20.3745 26.8706 19.8149 26.311 19.1246 26.311H12.8751C12.1848 26.311 11.6253 26.8706 11.6253 27.5609H3.75102C3.32152 27.5609 2.94027 27.3548 2.70515 26.9954C2.49184 26.6694 2.44215 26.2838 2.56315 25.9212L5.00559 22.6239H26.9942L29.4366 25.9212C29.5575 26.2838 29.508 26.6694 29.2946 26.9954Z" fill="#B4B7C9"/>
<path d="M12.6254 12.5007V12.5632V16.2504V16.3129C12.6254 17.0032 13.1849 17.5627 13.8753 17.5627C14.5656 17.5627 15.1251 17.0032 15.1251 16.3129V16.2504V12.5632V12.5007C15.1251 11.8104 14.5656 11.2509 13.8753 11.2509C13.1849 11.2508 12.6254 11.8104 12.6254 12.5007Z" fill="#6366F1"/>
<path d="M8.25047 11.2498V11.3123V16.2493V16.3118C8.25047 17.0021 8.81004 17.5617 9.50035 17.5617C10.1907 17.5617 10.7502 17.0021 10.7502 16.3118V16.2493V11.3123V11.2498C10.7502 10.5594 10.1907 9.99988 9.50035 9.99988C8.81004 9.99988 8.25047 10.5594 8.25047 11.2498Z" fill="#6366F1"/>
<path d="M16.9998 8.12603V8.18853V16.2503V16.3128C16.9998 17.0031 17.5594 17.5626 18.2497 17.5626C18.94 17.5626 19.4996 17.0031 19.4996 16.3128V16.2503V8.18853V8.12603C19.4996 7.43572 18.94 6.87616 18.2497 6.87616C17.5594 6.8761 16.9998 7.43572 16.9998 8.12603Z" fill="#6366F1"/>
<path d="M21.3743 14.4377V14.5002V16.2501V16.3126C21.3743 17.0029 21.9339 17.5624 22.6242 17.5624C23.3145 17.5624 23.8741 17.0029 23.8741 16.3126V16.2501V14.5002V14.4377C23.8741 13.7474 23.3145 13.1879 22.6242 13.1879C21.9339 13.1879 21.3743 13.7474 21.3743 14.4377Z" fill="#6366F1"/>
</g>
<defs>
<clipPath id="clip0_1_454">
<rect width="32" height="32" fill="white"/>
</clipPath>
</defs>
</svg>
