<svg width="24" height="20" viewBox="0 0 24 20" fill="none" xmlns="http://www.w3.org/2000/svg">
<path d="M24.0002 0.433634C20.7721 -0.0888555 18.3744 0.528634 16.8072 2.2861C15.2399 4.04357 14.4563 6.63227 14.4563 10.0522V19.742H24.0002V10.0522H19.0879C18.8306 8.34224 19.0645 6.95289 19.7897 5.88416C20.5382 4.81543 21.7546 4.35231 23.4388 4.49481L24.0002 0.433634ZM9.54404 0.433634C6.31597 -0.0888555 3.91831 0.528634 2.35106 2.2861C0.783805 4.04357 0.000179291 6.63227 0.000179291 10.0522V19.742H9.54404V10.0522H4.63176C4.37445 8.34224 4.60837 6.95289 5.33351 5.88416C6.08205 4.81543 7.29842 4.35231 8.98263 4.49481L9.54404 0.433634Z" fill="white"/>
</svg>
