<svg width="60" height="52" viewBox="0 0 60 52" fill="none" xmlns="http://www.w3.org/2000/svg">
<path d="M21.6867 27.7614L16.1444 20.5438L24.8621 17.9687L30.0001 10.4568L35.138 17.9687L43.8557 20.5438L38.3135 27.7614L38.5632 36.8649L30.0001 33.8137L21.4369 36.8649L21.6867 27.7614Z" fill="#EFF2FC"/>
<path d="M56.5845 30.4992L59.9216 21.8459C60.0607 21.4854 60.0131 21.0797 59.7946 20.7612C59.5761 20.4427 59.2145 20.2524 58.8283 20.2524H53.2019C53.8216 19.418 53.9997 18.335 53.6777 17.3442C53.3506 16.3382 52.5502 15.5589 51.5368 15.2595L39.6503 11.7486L32.6445 1.50568C32.0466 0.631695 31.0581 0.109741 30.0002 0.109741C28.9422 0.109741 27.9536 0.631577 27.3558 1.50568L20.35 11.7486L8.46357 15.2595C7.45025 15.5589 6.64974 16.3382 6.32267 17.3442C6.00064 18.335 6.17876 19.4181 6.79833 20.2524H1.17193C0.785677 20.2524 0.424154 20.4428 0.205599 20.7612C-0.0128382 21.0797 -0.0605335 21.4854 0.0785681 21.8459L3.41572 30.4992L0.0785681 39.1525C-0.0605335 39.513 -0.0128382 39.9187 0.205599 40.2372C0.424154 40.5557 0.785677 40.746 1.17193 40.746H14.0958L14.0464 42.5499C14.0173 43.6096 14.5117 44.6138 15.3688 45.2361C16.2242 45.8572 17.3292 46.0161 18.3249 45.6615L25.6625 43.047L23.3438 49.5476H20.6937C20.0466 49.5476 19.5218 50.0723 19.5218 50.7195C19.5218 51.3667 20.0466 51.8914 20.6937 51.8914H39.3064C39.9535 51.8914 40.4782 51.3667 40.4782 50.7195C40.4782 50.0723 39.9535 49.5476 39.3064 49.5476H36.6564L34.339 43.0475L41.6753 45.6615C42.0252 45.7862 42.3886 45.8473 42.7499 45.8473C43.4167 45.8473 44.0765 45.6388 44.6314 45.2361C45.4885 44.6138 45.9829 43.6096 45.9538 42.5499L45.9044 40.746H58.8282C59.2144 40.746 59.5759 40.5556 59.7945 40.2372C60.0129 39.9187 60.0606 39.513 59.9215 39.1525L56.5845 30.4992ZM54.5245 29.3273H46.234L51.4027 22.5961H57.1204L54.5245 29.3273ZM8.59751 22.5961L13.7662 29.3273H5.47576L2.87994 22.5961H8.59751ZM2.87982 38.4023L5.47564 31.6712H14.3447L14.1601 38.4023H2.87982ZM34.1682 49.5476H25.832L28.5131 42.0312L30 41.5014L31.4887 42.0318L34.1682 49.5476ZM43.2544 43.3395C43.1441 43.4196 42.8467 43.5906 42.462 43.4538L30.3934 39.1536C30.2663 39.1082 30.1332 39.0856 30.0002 39.0856C29.867 39.0856 29.734 39.1082 29.6069 39.1536L17.5383 43.4538C17.1538 43.5908 16.8561 43.4196 16.7459 43.3395C16.6349 43.2589 16.3779 43.027 16.3893 42.6142L16.7415 29.7844C16.7488 29.5154 16.6634 29.252 16.4996 29.0385L8.68845 18.8662C8.4372 18.5391 8.50904 18.1996 8.55157 18.0688C8.59388 17.9386 8.73474 17.6233 9.12743 17.5073L21.4137 13.8782C21.6724 13.8018 21.8968 13.6386 22.049 13.4159L29.2902 2.82884C29.522 2.49005 29.8639 2.45349 30.0002 2.45349C30.1365 2.45349 30.4783 2.49005 30.7101 2.82884L37.9513 13.4159C38.1036 13.6385 38.328 13.8018 38.5866 13.8782L50.8729 17.5073C51.2656 17.6233 51.4065 17.9386 51.4488 18.0688C51.4913 18.1996 51.5631 18.5392 51.3119 18.8663L43.501 29.0385C43.3372 29.252 43.2516 29.5154 43.2591 29.7844L43.6113 42.6142C43.6223 43.027 43.3654 43.2589 43.2544 43.3395ZM45.84 38.4023L45.6554 31.6712H54.5245L57.1203 38.4023H45.84Z" fill="#B4B7C9"/>
<path d="M32.0576 22.6613C32.0576 22.014 31.5329 21.4894 30.8857 21.4894H29.1147C28.4676 21.4894 27.9428 22.014 27.9428 22.6613C27.9428 23.2097 28.3196 23.67 28.8284 23.7979V26.4367C28.3197 26.5644 27.9428 27.0248 27.9428 27.5733C27.9428 28.2205 28.4676 28.7452 29.1147 28.7452H30.8857C31.5329 28.7452 32.0576 28.2205 32.0576 27.5733C32.0576 27.0248 31.6809 26.5645 31.172 26.4367V23.7979C31.6809 23.67 32.0576 23.2097 32.0576 22.6613Z" fill="#9397AD"/>
</svg>
