<svg width="60" height="46" viewBox="0 0 60 46" fill="none" xmlns="http://www.w3.org/2000/svg">
<path d="M52.3926 28.2931C53.0273 28.4736 53.8245 28.6329 54.6611 28.6329C55.5122 28.6329 56.4041 28.468 57.207 27.9927C59.6818 26.5279 59.9727 22.9084 59.9977 22.5006C60.0272 22.0211 59.7609 21.5723 59.3261 21.368C58.956 21.1942 55.6386 19.7125 53.1648 21.1769C52.9131 21.3258 52.684 21.4972 52.4754 21.6851C52.2357 21.3685 51.8411 21.1813 51.4173 21.2261C50.7737 21.2939 50.3068 21.8706 50.3748 22.5143C50.5705 24.3715 50.4576 26.2456 50.0392 28.0845C48.4158 35.22 42.4322 40.5204 35.1499 41.2737C34.5061 41.3403 34.0383 41.9161 34.1048 42.56C34.1672 43.1628 34.676 43.6114 35.2691 43.6114C35.3094 43.6114 35.3502 43.6093 35.3911 43.605C38.0476 43.3302 40.5521 42.5234 42.7898 41.2863C43.3406 42.6653 44.4778 44.7566 46.4946 45.5177C47.0702 45.7349 47.6636 45.8234 48.2486 45.8234C50.7608 45.8234 53.1178 44.1913 53.2391 44.106C53.6324 43.8296 53.8169 43.3408 53.7045 42.8733C53.6618 42.6957 52.6229 38.5082 49.5754 37.3584C49.0677 37.1668 48.5459 37.0752 48.0283 37.0564C48.301 36.7438 48.5639 36.4224 48.8164 36.0923C49.7499 36.7345 51.345 37.6172 53.0594 37.6172C53.4443 37.6172 53.8352 37.5727 54.2258 37.4711C57.1749 36.7038 58.5368 33.0905 58.6823 32.6811C58.8433 32.2281 58.7115 31.7229 58.3497 31.4065C58.0227 31.1205 55.0721 28.6361 52.1268 29.3966C52.198 29.135 52.264 28.8708 52.3245 28.6046C52.3481 28.5007 52.3707 28.3969 52.3926 28.2931ZM56.1319 32.6649C55.6476 33.6073 54.7581 34.9107 53.6354 35.2028C52.5075 35.4959 51.1037 34.799 50.2127 34.2046C50.6969 33.2622 51.5865 31.9588 52.7092 31.6667C53.8367 31.3735 55.2409 32.0704 56.1319 32.6649ZM54.3586 23.1937C55.2444 22.6694 56.6062 22.9043 57.5388 23.193C57.3445 24.149 56.8974 25.4522 56.0131 25.9757C55.1273 26.5002 53.7657 26.2652 52.8329 25.9764C53.0272 25.0205 53.4742 23.7172 54.3586 23.1937ZM51.1711 42.6209C50.151 43.1636 48.5272 43.7797 47.3218 43.3247C46.1163 42.8698 45.305 41.3348 44.8986 40.255C45.9187 39.7123 47.5424 39.0964 48.7479 39.5512C49.9534 40.0061 50.7648 41.5411 51.1711 42.6209Z" fill="#B4B7C9"/>
<path d="M24.8501 41.2737C17.5678 40.5204 11.5842 35.22 9.96081 28.0844C9.54233 26.2455 9.42948 24.3714 9.62518 22.5142C9.69304 21.8705 9.22628 21.2937 8.58268 21.226C8.15905 21.1817 7.76436 21.3686 7.52472 21.6851C7.31612 21.4972 7.08702 21.3258 6.8353 21.1769C4.36147 19.7125 1.04401 21.1942 0.673934 21.368C0.239169 21.5722 -0.0270814 22.0211 0.00233266 22.5006C0.0274108 22.9084 0.31827 26.5279 2.79304 27.9927C3.59612 28.4682 4.48768 28.6329 5.33893 28.6329C6.17554 28.6329 6.97276 28.4736 7.60745 28.2931C7.62936 28.3969 7.65198 28.5007 7.67565 28.6045C7.73624 28.8708 7.80222 29.1349 7.87335 29.3966C4.92843 28.6362 1.97753 31.1205 1.65046 31.4065C1.2887 31.7231 1.15698 32.2282 1.31788 32.6811C1.46343 33.0905 2.82538 36.7038 5.7744 37.4711C6.16522 37.5728 6.55581 37.6172 6.94077 37.6172C8.65499 37.6172 10.2501 36.7345 11.1838 36.0923C11.4364 36.4224 11.6993 36.744 11.972 37.0565C11.4544 37.0754 10.9326 37.1668 10.4248 37.3585C7.37729 38.5083 6.33843 42.6957 6.29565 42.8734C6.18327 43.3409 6.36772 43.8297 6.76112 44.1061C6.88241 44.1915 9.23917 45.8235 11.7516 45.8235C12.3364 45.8235 12.9302 45.7349 13.5056 45.5178C15.5224 44.7568 16.6595 42.6654 17.2104 41.2864C19.4481 42.5235 21.9526 43.3304 24.6091 43.6052C24.6501 43.6094 24.6908 43.6115 24.7311 43.6115C25.3242 43.6115 25.833 43.1629 25.8954 42.5601C25.9617 41.9163 25.4939 41.3403 24.8501 41.2737ZM6.36444 35.2028C5.23768 34.9096 4.35386 33.6179 3.86729 32.6655C4.75909 32.0704 6.163 31.373 7.29058 31.6667C8.41733 31.9599 9.30116 33.2516 9.78772 34.204C8.89593 34.7991 7.4919 35.496 6.36444 35.2028ZM3.98671 25.9758C3.10229 25.4522 2.65522 24.1486 2.46104 23.1938C3.38659 22.9091 4.75815 22.671 5.64128 23.1938C6.52569 23.7174 6.97276 25.021 7.16694 25.9758C6.2414 26.2601 4.86972 26.4985 3.98671 25.9758ZM12.678 43.3249C11.4724 43.7799 9.84796 43.1634 8.82878 42.6213C9.23565 41.5404 10.0468 40.006 11.252 39.5513C12.4576 39.0966 14.0822 39.7129 15.1012 40.2549C14.6944 41.3356 13.8832 42.87 12.678 43.3249Z" fill="#B4B7C9"/>
<path d="M46.7325 28.2978V7.17519C46.7325 6.82246 46.5735 6.48848 46.2998 6.26594C46.026 6.0434 45.6665 5.95598 45.3213 6.02805C44.9191 6.11195 44.5046 6.15449 44.0893 6.15449C41.1465 6.15449 38.6584 4.05203 38.1733 1.15516C38.0787 0.59043 37.59 0.176758 37.0175 0.176758H22.9824C22.41 0.176758 21.9212 0.59043 21.8266 1.15516C21.3416 4.05191 18.8534 6.15449 15.9106 6.15449C15.4954 6.15449 15.0808 6.11195 14.6786 6.02805C14.3333 5.95598 13.9739 6.0434 13.7001 6.26594C13.4264 6.48848 13.2675 6.82246 13.2675 7.17519V28.2978C13.2675 30.7064 14.6749 32.9273 16.8529 33.9556L29.4997 39.9268C29.6581 40.0016 29.8291 40.039 30.0001 40.039C30.171 40.039 30.342 40.0016 30.5005 39.9268L43.1472 33.9556C45.3251 32.9273 46.7325 30.7064 46.7325 28.2978ZM30 37.5712L17.8536 31.8362C16.4914 31.1931 15.6112 29.8042 15.6112 28.2979V8.49285C15.7109 8.49637 15.8108 8.49813 15.9106 8.49813C19.6638 8.49813 22.8853 6.03742 23.9142 2.52051H36.0859C37.1148 6.03754 40.3362 8.49813 44.0894 8.49813C44.1893 8.49813 44.2891 8.49637 44.3888 8.49285V28.2978C44.3888 29.8041 43.5086 31.1931 42.1464 31.8362L30 37.5712Z" fill="#B4B7C9"/>
<path d="M19.5956 28.2525V11.9266C22.4921 11.0271 24.9444 9.08945 26.4895 6.50488H33.5104C35.0557 9.08934 37.5078 11.027 40.4043 11.9266V28.2525L30 33.165L19.5956 28.2525Z" fill="#EFF2FC"/>
<path d="M32.1585 17.2393C32.1585 16.592 31.6339 16.0674 30.9866 16.0674H28.9901C28.3429 16.0674 27.8182 16.592 27.8182 17.2393C27.8182 17.8275 28.2516 18.3145 28.8166 18.3984V21.5977C28.2517 21.6816 27.8182 22.1685 27.8182 22.7568C27.8182 23.404 28.3429 23.9287 28.9901 23.9287H30.9866C31.6339 23.9287 32.1585 23.404 32.1585 22.7568C32.1585 22.1686 31.7252 21.6817 31.1603 21.5977V18.3984C31.7252 18.3145 32.1585 17.8275 32.1585 17.2393Z" fill="#9397AD"/>
</svg>
