<svg width="60" height="44" viewBox="0 0 60 44" fill="none" xmlns="http://www.w3.org/2000/svg">
<path d="M29.9884 36.1301C37.8002 36.1301 44.1328 29.8042 44.1328 22.0009C44.1328 14.1976 37.8002 7.8717 29.9884 7.8717C22.1767 7.8717 15.844 14.1976 15.844 22.0009C15.844 29.8042 22.1767 36.1301 29.9884 36.1301Z" fill="#EFF2FC"/>
<path d="M59.3848 23.7278C59.2144 23.6357 55.1747 21.4921 52.1222 23.0746C52.0407 23.1169 51.9608 23.1613 51.8827 23.2077C51.9045 22.808 51.9158 22.4054 51.9158 22.0004C51.9158 21.8196 51.9135 21.6393 51.9091 21.4594C52.1351 21.4739 52.3804 21.4831 52.6394 21.4831C54.0753 21.4831 55.9294 21.2001 57.2235 19.9746C59.577 17.746 58.9131 13.505 58.8837 13.3255C58.806 12.8515 58.4468 12.4728 57.9776 12.3702C57.7997 12.3314 53.5969 11.4442 51.2444 13.6719C50.9881 13.9146 50.7675 14.1812 50.5781 14.4639C47.4957 6.08852 39.4293 0.0980225 29.9885 0.0980225C20.556 0.0980225 12.4955 6.07809 9.40712 14.442C9.22103 14.1675 9.00529 13.9084 8.75568 13.6721C6.40314 11.4442 2.20022 12.3314 2.02245 12.3703C1.55311 12.4729 1.19394 12.8516 1.11636 13.3257C1.08694 13.5051 0.423078 17.7461 2.77655 19.9747C4.07065 21.2003 5.92467 21.4832 7.36068 21.4832C7.61088 21.4832 7.8483 21.4746 8.06791 21.4609C8.06357 21.6403 8.06123 21.8201 8.06123 22.0006C8.06123 22.4009 8.07213 22.7987 8.09345 23.1939C8.02291 23.1525 7.95095 23.1128 7.87759 23.0747C4.8251 21.4923 0.785538 23.6359 0.615031 23.7279C0.192102 23.9562 -0.0486005 24.4195 0.00800094 24.897C0.0307353 25.0893 0.600734 29.6238 3.65428 31.2069C4.4726 31.6311 5.36182 31.7876 6.22842 31.7876C7.69982 31.7876 9.10595 31.3365 9.98907 30.9792C10.2512 31.5596 10.5381 32.1267 10.8482 32.679C10.1877 32.5183 9.4929 32.4581 8.78545 32.5557C5.20069 33.0503 3.03026 37.3567 2.93956 37.5397C2.72628 37.9706 2.79776 38.4881 3.11991 38.8449C3.24799 38.9867 6.10467 42.1063 9.40583 42.1063C9.63494 42.1063 9.86638 42.0913 10.0989 42.0592C12.5597 41.7197 14.3539 39.584 15.2665 38.2189C19.1609 41.7492 24.3274 43.903 29.9883 43.903C35.656 43.903 40.8283 41.7439 44.7243 38.2059C45.6342 39.5704 47.432 41.7185 49.9006 42.059C50.1333 42.0911 50.3644 42.1061 50.5936 42.1061C53.8946 42.1061 56.7515 38.9866 56.8796 38.8448C57.2017 38.488 57.2732 37.9705 57.0599 37.5396C56.9693 37.3565 54.7989 33.0501 51.214 32.5556C50.497 32.4568 49.7929 32.5202 49.1243 32.6859C49.4374 32.1289 49.7267 31.5568 49.9909 30.9712C50.8727 31.3298 52.2886 31.7875 53.7711 31.7875C54.6374 31.7875 55.527 31.6309 56.3452 31.2068C59.3987 29.6238 59.9687 25.0891 59.9915 24.8968C60.0483 24.4194 59.8077 23.9561 59.3848 23.7278ZM52.8558 15.3736C53.7827 14.496 55.504 14.4358 56.6462 14.5399C56.6896 15.6851 56.5375 17.3962 55.6118 18.2728C54.6851 19.1506 52.9634 19.2108 51.8214 19.1065C51.7781 17.9613 51.9303 16.2503 52.8558 15.3736ZM4.38823 18.2728C3.46233 17.396 3.31034 15.6842 3.3537 14.5402C4.49674 14.4354 6.21764 14.4962 7.14424 15.3736C8.07013 16.2504 8.22213 17.9623 8.17888 19.1064C7.0356 19.2106 5.31471 19.1502 4.38823 18.2728ZM4.73323 29.1259C3.4621 28.4669 2.78089 26.657 2.49014 25.4434C3.65264 24.9817 5.5274 24.4962 6.79912 25.1554C8.06838 25.8134 8.74947 27.6191 9.04091 28.8327C7.99092 29.2509 6.07783 29.823 4.73323 29.1259ZM9.77884 39.7371C8.22037 39.9517 6.46643 38.7492 5.4626 37.8606C6.11193 36.8496 7.45502 35.1049 9.10595 34.8772C10.6629 34.6622 12.4184 35.865 13.4222 36.7537C12.7729 37.7647 11.4298 39.5094 9.77884 39.7371ZM29.9885 41.559C19.1901 41.559 10.4051 32.7851 10.4051 22.0004C10.4051 11.2158 19.1901 2.44177 29.9885 2.44177C40.7868 2.44177 49.572 11.2157 49.572 22.0003C49.572 32.785 40.7868 41.559 29.9885 41.559ZM50.8941 34.8772C52.4538 35.0924 53.8178 36.7292 54.542 37.8565C53.5381 38.7463 51.7804 39.9518 50.2212 39.7371C48.6616 39.5219 47.2975 37.8851 46.5733 36.7578C47.5772 35.868 49.3348 34.6621 50.8941 34.8772ZM55.2668 29.1259C53.9968 29.7844 52.1248 29.3007 50.9629 28.84C51.2248 27.7419 51.8573 25.8519 53.2009 25.1554C54.4711 24.4969 56.3431 24.9804 57.5049 25.4413C57.2429 26.5393 56.6105 28.4293 55.2668 29.1259Z" fill="#B4B7C9"/>
<path d="M32.1587 19.2412C32.1587 18.594 31.634 18.0693 30.9868 18.0693H28.9903C28.3431 18.0693 27.8184 18.594 27.8184 19.2412C27.8184 19.8295 28.2518 20.3164 28.8167 20.4003V23.5996C28.2519 23.6835 27.8184 24.1705 27.8184 24.7587C27.8184 25.406 28.3431 25.9306 28.9903 25.9306H30.9868C31.634 25.9306 32.1587 25.406 32.1587 24.7587C32.1587 24.1706 31.7253 23.6837 31.1605 23.5996V20.4003C31.7253 20.3164 32.1587 19.8295 32.1587 19.2412Z" fill="#9397AD"/>
</svg>
