<svg width="60" height="52" viewBox="0 0 60 52" fill="none" xmlns="http://www.w3.org/2000/svg">
<path d="M58.0377 31.3872L59.9492 25.1094C60.0574 24.7542 59.9907 24.3687 59.7698 24.0705C59.5488 23.7721 59.1995 23.5962 58.8282 23.5962H47.388V7.28653C47.388 6.93368 47.2291 6.59958 46.9553 6.37704C46.6813 6.1545 46.3215 6.06696 45.9765 6.13939C45.554 6.22763 45.1188 6.27239 44.683 6.27239C41.5922 6.27239 38.9789 4.05896 38.4692 1.00927C38.3748 0.444424 37.886 0.0305176 37.3134 0.0305176H22.6868C22.1141 0.0305176 21.6253 0.444424 21.531 1.00927C21.0212 4.05896 18.4079 6.27239 15.3171 6.27239C14.8813 6.27239 14.446 6.22763 14.0235 6.13939C13.6781 6.06696 13.3186 6.15439 13.0447 6.37704C12.7708 6.59958 12.6119 6.93368 12.6119 7.28653V23.5961H1.17185C0.800603 23.5961 0.451267 23.772 0.230251 24.0704C0.00923546 24.3686 -0.057327 24.754 0.050837 25.1092L1.9624 31.3871L0.050837 37.6651C-0.057327 38.0202 0.00923546 38.4057 0.230251 38.704C0.451267 39.0024 0.800603 39.1783 1.17185 39.1783H12.612V39.76C12.612 42.2548 14.0673 44.5552 16.3195 45.6207L29.4989 51.8558C29.6576 51.9308 29.8288 51.9683 30 51.9683C30.1713 51.9683 30.3425 51.9308 30.5011 51.8558L43.6806 45.6207C45.9327 44.5552 47.3879 42.2548 47.3879 39.76V39.1783H58.8281C59.1994 39.1783 59.5487 39.0024 59.7697 38.704C59.9907 38.4058 60.0573 38.0204 59.9491 37.6652L58.0377 31.3872ZM14.9558 20.0819H45.0442V31.9015H14.9558V20.0819ZM15.3171 8.61626C19.2195 8.61626 22.567 6.04505 23.6212 2.37439H36.3788C37.4329 6.04505 40.7805 8.61626 44.6829 8.61626C44.8033 8.61626 44.9238 8.6138 45.0442 8.60876V17.7381H14.9558V8.60876C15.0761 8.61368 15.1966 8.61626 15.3171 8.61626ZM2.75365 36.8347L4.05549 32.5592H7.98654C8.63377 32.5592 9.15841 32.0345 9.15841 31.3873C9.15841 30.7401 8.63377 30.2154 7.98654 30.2154H4.05549L2.75365 25.94H12.612V36.8347H2.75365ZM42.6784 43.5022L30 49.5002L17.3217 43.5022C15.8844 42.8222 14.9558 41.3534 14.9558 39.7601V34.2453H45.0442V39.7601C45.0442 41.3534 44.1154 42.8222 42.6784 43.5022ZM47.3879 36.8347V25.94H57.2463L55.9445 30.2154H52.0133C51.3662 30.2154 50.8414 30.7401 50.8414 31.3873C50.8414 32.0345 51.3662 32.5592 52.0133 32.5592H55.9445L57.2463 36.8347H47.3879Z" fill="#B4B7C9"/>
</svg>
