<svg width="40" height="38" viewBox="0 0 40 38" fill="none" xmlns="http://www.w3.org/2000/svg">
<path d="M36.4844 0.25H3.51562C1.57715 0.25 0 1.82715 0 3.76562V27.2031C0 29.1416 1.57715 30.7188 3.51562 30.7188H13.6865L12.124 35.4062H8.28125C7.63397 35.4062 7.10938 35.9308 7.10938 36.5781C7.10938 37.2254 7.63397 37.75 8.28125 37.75H31.7188C32.366 37.75 32.8906 37.2254 32.8906 36.5781C32.8906 35.9308 32.366 35.4062 31.7188 35.4062H27.876L26.3135 30.7188H36.4844C38.4229 30.7188 40 29.1416 40 27.2031V3.76562C40 1.82715 38.4229 0.25 36.4844 0.25ZM14.5947 35.4062L16.1572 30.7188H23.8428L25.4053 35.4062H14.5947ZM37.6562 27.2031C37.6562 27.8492 37.1304 28.375 36.4844 28.375C33.0795 28.375 6.95587 28.375 3.51562 28.375C2.86957 28.375 2.34375 27.8492 2.34375 27.2031V26.0312H37.6562V27.2031ZM12.7795 16.9523L11.7136 15.8866L13.3707 14.2292L14.4366 15.2952C14.8145 15.673 15.4001 15.7474 15.8606 15.4758C16.5192 15.0876 17.2223 14.795 17.9501 14.6064C18.4671 14.4727 18.8281 14.0061 18.8281 13.472V11.9688H21.1719V13.472C21.1719 14.0061 21.5329 14.4727 22.0499 14.6064C22.7774 14.795 23.4805 15.0876 24.1391 15.4761C24.5996 15.7474 25.1852 15.673 25.563 15.2952L26.629 14.2292L28.2864 15.8866L27.2205 16.9526C26.8427 17.3304 26.7682 17.916 27.0398 18.3762C27.4283 19.0351 27.7206 19.7382 27.9092 20.4658C28.0429 20.9827 28.5095 21.3438 29.0436 21.3438H30.5469V23.6875H25.741C25.8191 23.3036 25.8594 22.9108 25.8594 22.5156C25.8594 19.2847 23.2309 16.6562 20 16.6562C16.7691 16.6562 14.1406 19.2847 14.1406 22.5156C14.1406 22.9108 14.1809 23.3036 14.259 23.6875H9.45312V21.3438H10.9564C11.4905 21.3438 11.9571 20.9827 12.0911 20.4658C12.2794 19.7382 12.572 19.0351 12.9602 18.3762C13.2315 17.916 13.1573 17.3304 12.7795 16.9523ZM23.5156 22.5156C23.5156 22.9169 23.446 23.3134 23.3142 23.6875H16.6858C16.554 23.3134 16.4844 22.9169 16.4844 22.5156C16.4844 20.5771 18.0615 19 20 19C21.9385 19 23.5156 20.5771 23.5156 22.5156ZM37.6562 23.6875H32.8906V20.1719C32.8906 19.5246 32.366 19 31.7188 19H29.9084C29.787 18.6594 29.6475 18.3246 29.4907 17.9966L30.7724 16.7151C31.2299 16.2574 31.2299 15.5155 30.7721 15.0577L27.4576 11.7432C27.2379 11.5235 26.9397 11.4002 26.629 11.4002C26.3184 11.4002 26.0202 11.5235 25.8005 11.7432L24.519 13.025C24.191 12.8681 23.8562 12.7286 23.5156 12.6075V10.7969C23.5156 10.1496 22.991 9.625 22.3438 9.625H17.6562C17.009 9.625 16.4844 10.1496 16.4844 10.7969V12.6075C16.1438 12.7286 15.809 12.8681 15.481 13.025L14.1995 11.7432C13.9798 11.5235 13.6816 11.4002 13.371 11.4002C13.06 11.4002 12.7621 11.5235 12.5421 11.7432L9.22791 15.0577C8.77014 15.5155 8.77014 16.2574 9.22791 16.7151L10.5093 17.9969C10.3525 18.3246 10.2133 18.6594 10.0919 19H8.28125C7.63397 19 7.10938 19.5249 7.10938 20.1719V23.6875H2.34375V3.76562C2.34375 3.11957 2.86957 2.59375 3.51562 2.59375H36.4844C37.1304 2.59375 37.6562 3.11957 37.6562 3.76562V23.6875Z" fill="white"/>
</svg>
