<svg width="20" height="17" viewBox="0 0 20 17" fill="none" xmlns="http://www.w3.org/2000/svg">
<g filter="url(#filter0_d_4752_146)">
<path d="M16.3609 3.66412C16.3717 3.80995 16.3717 3.95495 16.3717 4.09995C16.3717 8.53745 12.9942 13.6508 6.82169 13.6508C4.92002 13.6508 3.15335 13.1 1.66669 12.1433C1.93669 12.1741 2.19669 12.185 2.47752 12.185C4.04669 12.185 5.49085 11.655 6.64502 10.7508C5.16919 10.72 3.93252 9.75329 3.50585 8.42329C3.71335 8.45412 3.92169 8.47495 4.14002 8.47495C4.44085 8.47495 4.74335 8.43329 5.02419 8.36079C3.48502 8.04912 2.33252 6.69829 2.33252 5.06662V5.02495C2.78002 5.27412 3.29919 5.42995 3.84919 5.45079C2.94502 4.84912 2.35252 3.81995 2.35252 2.65579C2.35252 2.03245 2.51835 1.46079 2.80919 0.962454C4.46169 2.99829 6.94585 4.32912 9.73085 4.47495C9.67919 4.22495 9.64752 3.96579 9.64752 3.70579C9.64752 1.85579 11.1442 0.349121 13.0042 0.349121C13.9709 0.349121 14.8434 0.754121 15.4567 1.40912C16.215 1.26329 16.9417 0.982454 17.5867 0.598288C17.3375 1.37745 16.8067 2.03245 16.1109 2.44829C16.7867 2.37495 17.4417 2.18829 18.0434 1.92829C17.5867 2.59329 17.0159 3.18579 16.3609 3.66412Z" fill="white"/>
</g>
<defs>
<filter id="filter0_d_4752_146" x="-2.33331" y="0.349121" width="24.3766" height="21.3018" filterUnits="userSpaceOnUse" color-interpolation-filters="sRGB">
<feFlood flood-opacity="0" result="BackgroundImageFix"/>
<feColorMatrix in="SourceAlpha" type="matrix" values="0 0 0 0 0 0 0 0 0 0 0 0 0 0 0 0 0 0 127 0" result="hardAlpha"/>
<feOffset dy="4"/>
<feGaussianBlur stdDeviation="2"/>
<feComposite in2="hardAlpha" operator="out"/>
<feColorMatrix type="matrix" values="0 0 0 0 0 0 0 0 0 0 0 0 0 0 0 0 0 0 0.25 0"/>
<feBlend mode="normal" in2="BackgroundImageFix" result="effect1_dropShadow_4752_146"/>
<feBlend mode="normal" in="SourceGraphic" in2="effect1_dropShadow_4752_146" result="shape"/>
</filter>
</defs>
</svg>
