<svg width="18" height="12" viewBox="0 0 18 12" fill="none" xmlns="http://www.w3.org/2000/svg">
<path d="M16.9942 2.00259C16.8025 1.28759 16.24 0.723421 15.5258 0.530921C14.2208 0.172588 9 0.166754 9 0.166754C9 0.166754 3.78 0.160921 2.47417 0.503421C1.77417 0.694254 1.19583 1.27092 1.0025 1.98509C0.658333 3.29009 0.655 5.99675 0.655 5.99675C0.655 5.99675 0.651667 8.71675 0.993333 10.0084C1.185 10.7226 1.7475 11.2868 2.4625 11.4793C3.78083 11.8376 8.9875 11.8434 8.9875 11.8434C8.9875 11.8434 14.2083 11.8493 15.5133 11.5076C16.2267 11.3159 16.7917 10.7526 16.9858 10.0384C17.3308 8.73425 17.3333 6.02842 17.3333 6.02842C17.3333 6.02842 17.35 3.30759 16.9942 2.00259ZM7.33 8.50425L7.33417 3.50425L11.6733 6.00842L7.33 8.50425Z" fill="white"/>
</svg>
